<?xml version="1.0" encoding="utf-8"?>
<!-- Generator: Adobe Illustrator 16.2.1, SVG Export Plug-In . SVG Version: 6.00 Build 0)  -->
<!DOCTYPE svg PUBLIC "-//W3C//DTD SVG 1.1//EN" "http://www.w3.org/Graphics/SVG/1.1/DTD/svg11.dtd">
<svg version="1.1" id="Layer_1" xmlns="http://www.w3.org/2000/svg" xmlns:xlink="http://www.w3.org/1999/xlink" x="0px" y="0px"
	 width="2316.414px" height="1544px" viewBox="0 0 2316.414 1544" enable-background="new 0 0 2316.414 1544" xml:space="preserve">
<g>
	<g>
		<path fill="#4AB8E6" d="M1356.799,772.996c-60.295,42.231-130.83,63.439-202.953,62.453c-9.543-0.111-19.022-0.591-28.354-1.421
			c-3.782-0.36-7.629-0.978-11.476-1.467c-7.343-0.974-14.756-1.956-21.946-3.349c-4.424-0.84-8.769-1.975-13.044-2.989
			c-7.057-1.638-14.11-3.321-20.95-5.368c-3.275-1.016-6.554-2.187-9.833-3.275c-7.911-2.676-15.748-5.41-23.441-8.625
			c-1.716-0.692-3.427-1.531-5.134-2.288c-8.98-3.939-17.809-8.095-26.435-12.74c-0.359-0.222-0.715-0.388-1.139-0.608
			c-29.003-15.945-55.585-35.84-78.883-59.077c-0.359-0.351-0.715-0.803-1.07-1.208c-7.237-7.252-14.146-14.834-20.701-22.768
			c-1.356-1.675-2.708-3.496-4.063-5.203c-47.389-59.289-75.959-134.34-75.959-215.944h91.208L756.69,270.204L610.75,489.118h91.212
			c0,95.95,29.931,184.893,80.733,258.448c0.641,1.02,1.07,2.108,1.749,3.142c5.24,7.519,11.079,14.446,16.748,21.55
			c2.099,2.712,4.091,5.471,6.268,8.108c8.298,10.11,17.14,19.575,26.259,28.86c0.858,0.904,1.642,1.822,2.495,2.652
			c30.494,30.544,64.99,56.268,102.435,76.845c0.997,0.571,1.993,1.171,3.063,1.716c10.756,5.803,21.882,11.052,33.136,16.006
			c2.851,1.217,5.554,2.56,8.404,3.772c9.622,3.967,19.53,7.472,29.502,10.793c4.705,1.614,9.335,3.238,14.114,4.705
			c8.768,2.573,17.67,4.741,26.651,6.863c5.914,1.384,11.827,2.888,17.883,4.041c2.5,0.517,4.921,1.282,7.343,1.679
			c8.482,1.494,17.025,2.353,25.438,3.367c3.062,0.351,6.056,0.876,9.114,1.189c15.258,1.495,30.433,2.491,45.539,2.491
			c92.714,0,183.202-28.357,260.812-82.712c24.723-17.37,30.701-51.447,13.395-76.207
			C1415.655,761.611,1381.522,755.62,1356.799,772.996"/>
	</g>
	<g>
		<path fill="#91CA6B" d="M1614.039,489.095c0-95.664-29.714-184.436-80.312-257.834c-0.701-1.243-1.2-2.533-2.058-3.686
			c-6.273-8.979-13.191-17.329-19.954-25.727c-0.857-1.015-1.577-2.083-2.426-3.093c-46.245-56.157-104.316-99.536-170.229-127.877
			c-1.799-0.8-3.57-1.677-5.415-2.442c-10.489-4.348-21.254-8.176-32.075-11.792c-3.921-1.285-7.768-2.691-11.753-3.865
			c-9.419-2.851-19.022-5.189-28.653-7.412c-5.341-1.234-10.683-2.581-16.033-3.656c-2.712-0.498-5.194-1.293-7.832-1.78
			c-7.205-1.248-14.474-1.781-21.661-2.747c-4.99-0.602-9.907-1.368-14.972-1.88c-12.112-1.144-24.151-1.607-36.125-1.819
			c-2.212,0-4.347-0.339-6.557-0.339c-0.355,0-0.715,0.108-1.139,0.139c-92.569,0.09-182.854,28.025-260.349,82.326
			c-24.76,17.313-30.784,51.43-13.469,76.21c17.32,24.762,51.485,30.786,76.212,13.436c59.861-41.937,129.695-63.175,201.309-62.513
			c10.339,0.085,20.45,0.586,30.496,1.526c3.072,0.344,6.135,0.805,9.197,1.179c8.192,1.015,16.393,2.193,24.438,3.759
			c3.57,0.692,7.057,1.603,10.553,2.403c7.906,1.781,15.747,3.686,23.515,6.024c2.417,0.766,4.843,1.637,7.269,2.438
			c8.755,2.89,17.454,5.989,25.932,9.529c0.932,0.357,1.78,0.808,2.639,1.16c51.014,21.93,95.7,55.724,130.617,97.965
			c0.221,0.268,0.434,0.59,0.637,0.839c49.169,59.801,78.754,136.281,78.754,219.528h-91.218l145.94,218.91l145.931-218.91H1614.039
			z"/>
	</g>
	<path fill="#6E7277" d="M1354.041,502.389c0,106.512-86.337,192.84-192.852,192.84c-106.498,0-192.826-86.328-192.826-192.84
		c0-106.499,86.328-192.831,192.826-192.831C1267.704,309.558,1354.041,395.89,1354.041,502.389z"/>
	<g>
		<g>
			<g>
				<path fill="#6E7277" d="M156.056,1190.289c68.47,0,123.334,49.207,123.334,118.376c0,69.631-54.864,118.394-122.907,118.394
					c-68.491,0-123.346-48.763-123.346-118.394C33.137,1239.496,87.992,1190.289,156.056,1190.289z M156.483,1379.182
					c35.982,0,66.263-28.386,66.263-70.517c0-41.697-30.281-70.507-66.263-70.507c-36.439,0-66.723,28.81-66.723,70.507
					C89.76,1350.796,120.044,1379.182,156.483,1379.182z"/>
				<path fill="#6E7277" d="M324.316,1195.612h53.549v39.031c0,8.403-0.865,15.94-0.865,15.94h0.865
					c10.069-32.361,36.879-58.071,71.118-58.071c5.253,0,10.087,0.886,10.087,0.886v55.442c0,0-5.719-0.923-13.129-0.923
					c-23.757,0-50.516,13.727-61.062,47.436c-3.51,11.088-4.795,23.533-4.795,36.816v89.575h-55.768V1195.612z"/>
				<path fill="#6E7277" d="M496.893,1106.932h55.729v97.112c0,11.079-0.835,19.04-0.835,19.04h0.835
					c0,0,19.769-32.795,67.227-32.795c60.544,0,99.183,48.321,99.183,118.376c0,71.826-43.473,118.394-102.73,118.394
					c-46.499,0-66.725-33.689-66.725-33.689h-0.865c0,0,0.865,6.633,0.865,15.498v12.878h-52.684V1106.932z M606.639,1379.605
					c30.701,0,56.189-25.258,56.189-70.055c0-42.998-22.823-70.94-55.719-70.94c-28.999,0-56.178,21.291-56.178,71.411
					C550.931,1345.03,569.337,1379.605,606.639,1379.605z"/>
				<path fill="#6E7277" d="M765.23,1106.932h55.341v50.064H765.23V1106.932z M765.23,1195.612h55.761v226.133H765.23V1195.612z"/>
				<path fill="#6E7277" d="M892.208,1243.934h-28.958v-44.797h30.23v-65.176h54.474v65.176h50.894v44.797h-50.894v87.822
					c0,37.223,28.93,42.545,44.308,42.545c6.171,0,10.078-0.885,10.078-0.885v49.233c0,0-6.573,1.301-17.08,1.301
					c-31.157,0-93.053-9.28-93.053-85.128V1243.934z"/>
			</g>
		</g>
		<g>
			<path fill="#6E7277" d="M1165.629,1466.957c34.253,0,63.201-14.612,63.201-54.972v-13.284c0-5.332,0.895-11.974,0.895-11.974
				h-0.895c-13.15,19.935-32.454,30.581-62.333,30.581c-64.044,0-100.516-52.315-100.516-114.418
				c0-62.066,34.677-112.602,99.229-112.602c48.717,0,66.268,28.801,66.268,28.801h1.319c0,0-0.466-2.656-0.466-6.172v-17.306
				h52.237v212.369c0,77.601-59.677,106.872-118.071,106.872c-28.095,0-57.91-7.988-79.427-19.511l16.665-42.998
				C1103.734,1452.345,1131.815,1466.957,1165.629,1466.957z M1230.181,1303.36c0-51.466-25.027-65.202-55.332-65.202
				c-33.81,0-52.684,24.871-52.684,62.988c0,39.483,20.193,68.699,56.208,68.699
				C1205.154,1369.846,1230.181,1354.348,1230.181,1303.36z"/>
			<path fill="#6E7277" d="M1346.195,1195.612h53.542v39.031c0,8.403-0.858,15.94-0.858,15.94h0.858
				c10.088-32.361,36.886-58.071,71.139-58.071c5.24,0,10.073,0.886,10.073,0.886v55.442c0,0-5.71-0.923-13.149-0.923
				c-23.736,0-50.517,13.727-61.061,47.436c-3.501,11.088-4.783,23.533-4.783,36.816v89.575h-55.761V1195.612z"/>
			<path fill="#6E7277" d="M1625.026,1190.289c68.454,0,123.348,49.207,123.348,118.376c0,69.631-54.894,118.394-122.928,118.394
				c-68.474,0-123.344-48.763-123.344-118.394C1502.103,1239.496,1556.973,1190.289,1625.026,1190.289z M1625.446,1379.182
				c36,0,66.305-28.386,66.305-70.517c0-41.697-30.305-70.507-66.305-70.507c-36.421,0-66.721,28.81-66.721,70.507
				C1558.726,1350.796,1589.025,1379.182,1625.446,1379.182z"/>
			<path fill="#6E7277" d="M1790.195,1195.612h55.761v133.92c0,27.481,7.021,46.098,34.668,46.098
				c40.387,0,62.79-35.923,62.79-76.255v-103.763h55.729v226.133h-53.537v-25.729c0-8.874,0.885-15.95,0.885-15.95h-0.885
				c-10.997,23.487-39.507,46.992-77.717,46.992c-47.827,0-77.693-24.363-77.693-86.014V1195.612z"/>
			<path fill="#6E7277" d="M2060.742,1195.612h50.932v16.402c0,8.432-0.876,15.507-0.876,15.507h0.876
				c0,0,19.322-37.232,72.006-37.232c60.562,0,99.184,48.321,99.184,118.376c0,71.826-43.474,118.394-102.27,118.394
				c-44.345,0-64.086-31.042-64.086-31.042h-0.854c0,0,0.854,8.008,0.854,19.511v94.889h-55.766V1195.612z M2170.488,1379.605
				c30.737,0,56.185-25.258,56.185-70.055c0-42.998-22.817-70.94-55.729-70.94c-28.984,0-56.185,21.291-56.185,71.411
				C2114.76,1345.03,2133.639,1379.605,2170.488,1379.605z"/>
		</g>
	</g>
</g>
<g>
</g>
<g>
</g>
<g>
</g>
<g>
</g>
<g>
</g>
<g>
</g>
</svg>
